# xmcd
#
# Track frame offsets:
#	150
#	15770
#	30202
#	49389
#	65871
#	79667
#	92510
#	108911
#	120144
#	132937
#	146411
#	161030
#	177000
#	189681
#	203416
#	223885
#	236625
#	247531
#	258270
#	269509
#	285131
#	302778
#
# Disc length: 4239 seconds
#
# Revision: 0
# Processed by: cddbd v1.5.2PL0 Copyright (c) Steve Scherf et al.
# Submitted via: EasyCDDAExtractor 16.1.0.1
#
DISCID=1d108d16
DTITLE=Teixeirinha - Teixeirinha - Grandes Sucessos
DYEAR=1900
DGENRE=
TTITLE0=Ela Tornou-se Freira
TTITLE1=Coração de Luto
TTITLE2=Espero Ser Feliz
TTITLE3=O Caneco é Nosso
TTITLE4=Canarinho Cantador
TTITLE5=Cobra Sucuri
TTITLE6=Dorme Angelita
TTITLE7=Saudades de Matão
TTITLE8=Burro Picasso
TTITLE9=Asa Branca
TTITLE10=Cabocla Tereza
TTITLE11=Paixão de Um Homem
TTITLE12=Gaúcho de Passo Fundo
TTITLE13=Chofer de Táxi
TTITLE14=Quem é Você Agora
TTITLE15=O Menino da Porteira
TTITLE16=A Volta do Boêmio
TTITLE17=Ébrio de Amor
TTITLE18=Não é Não
TTITLE19=Sertaneja
TTITLE20=Tristeza do Jeca
TTITLE21=A Morte Não Marca Hora
EXTD=
EXTT0=
EXTT1=
EXTT2=
EXTT3=
EXTT4=
EXTT5=
EXTT6=
EXTT7=
EXTT8=
EXTT9=
EXTT10=
EXTT11=
EXTT12=
EXTT13=
EXTT14=
EXTT15=
EXTT16=
EXTT17=
EXTT18=
EXTT19=
EXTT20=
EXTT21=
PLAYORDER=
